<svg xmlns="http://www.w3.org/2000/svg" width="21" height="20" viewBox="0 0 21 20">
    <g fill="none" fill-rule="evenodd">
        <path d="M-2-3h24v24H-2z"/>
        <path fill-rule="nonzero" stroke="#3E3E3E" stroke-width="2" d="M17.147 10.882c.037-.288.065-.576.065-.882 0-.306-.028-.594-.065-.882L19.1 7.633a.446.446 0 0 0 .11-.576l-1.85-3.114c-.11-.198-.36-.27-.564-.198l-2.304.9c-.481-.36-1-.657-1.564-.882l-.351-2.385A.447.447 0 0 0 12.123 1h-3.7a.447.447 0 0 0-.454.378l-.352 2.385a7.16 7.16 0 0 0-1.563.882l-2.304-.9a.457.457 0 0 0-.565.198l-1.85 3.114a.436.436 0 0 0 .11.576l1.953 1.485a6.946 6.946 0 0 0-.065.882c0 .297.028.594.065.882l-1.952 1.485a.446.446 0 0 0-.111.576l1.85 3.114c.111.198.361.27.565.198l2.304-.9c.48.36.999.657 1.563.882l.352 2.385a.447.447 0 0 0 .453.378h3.701a.447.447 0 0 0 .454-.378l.351-2.385a7.16 7.16 0 0 0 1.564-.882l2.304.9c.213.081.453 0 .564-.198l1.85-3.114a.446.446 0 0 0-.11-.576l-1.953-1.485zm-6.874 2.268c-1.786 0-3.239-1.413-3.239-3.15 0-1.737 1.453-3.15 3.239-3.15 1.785 0 3.238 1.413 3.238 3.15 0 1.737-1.453 3.15-3.238 3.15z"/>
    </g>
</svg>
